<svg xmlns="http://www.w3.org/2000/svg" width="1024" height="294" viewBox="0 0 1024 294" version="1.1"><path d="M 177 97.500 C 177 135.175, 177.333 166, 177.741 166 C 178.148 166, 187.148 157.342, 197.741 146.760 L 217 127.519 217 78.260 L 217 29 197 29 L 177 29 177 97.500 M 122.037 96.750 L 122.075 127.500 141 147 L 159.925 166.500 159.963 116.250 L 160 66 141 66 L 122 66 122.037 96.750 M 66 137.240 L 66 174.480 85 155.500 L 104 136.520 104 118.260 L 104 100 85 100 L 66 100 66 137.240 M 210.501 208.999 L 166.511 252.998 137.999 224.499 C 122.318 208.825, 109.185 196, 108.814 196 C 108.074 196, 96.671 207.707, 96.217 208.933 C 95.286 211.449, 159.210 273.908, 163.298 274.475 C 170.442 275.467, 171.909 274.357, 201.562 245.500 C 243.193 204.988, 251.385 193.339, 254.483 170.250 C 255.391 163.487, 260.543 158.948, 210.501 208.999" stroke="none" fill="#0082d4" fill-rule="evenodd"/><path d="M 284.500 85.485 C 281.750 86.181, 273.425 88.194, 266 89.961 C 258.575 91.727, 252.362 93.309, 252.193 93.477 C 252.024 93.644, 253.949 95.743, 256.472 98.141 L 261.059 102.500 215.031 148.494 L 169.003 194.489 143.499 168.999 L 117.995 143.509 87.823 173.681 L 57.651 203.853 61.576 212.430 C 63.734 217.147, 65.831 221.118, 66.235 221.253 C 66.640 221.389, 76.540 212.023, 88.235 200.439 C 99.931 188.855, 111.442 177.639, 113.816 175.513 L 118.133 171.647 143.630 197.074 L 169.127 222.500 221.210 170.068 L 273.292 117.637 278.157 122.872 C 281.235 126.185, 283.195 127.629, 283.495 126.804 C 284.050 125.275, 292 86.036, 292 84.823 C 292 83.792, 290.768 83.901, 284.500 85.485" stroke="none" fill="#ff2b26" fill-rule="evenodd"/><path d="M 177 97.500 C 177 135.175, 177.333 166, 177.741 166 C 178.148 166, 187.148 157.342, 197.741 146.760 L 217 127.519 217 78.260 L 217 29 197 29 L 177 29 177 97.500 M 122.037 96.750 L 122.075 127.500 141 147 L 159.925 166.500 159.963 116.250 L 160 66 141 66 L 122 66 122.037 96.750 M 66 137.240 L 66 174.480 85 155.500 L 104 136.520 104 118.260 L 104 100 85 100 L 66 100 66 137.240 M 210.501 208.999 L 166.511 252.998 137.999 224.499 C 122.318 208.825, 109.185 196, 108.814 196 C 108.074 196, 96.671 207.707, 96.217 208.933 C 95.286 211.449, 159.210 273.908, 163.298 274.475 C 170.442 275.467, 171.909 274.357, 201.562 245.500 C 243.193 204.988, 251.385 193.339, 254.483 170.250 C 255.391 163.487, 260.543 158.948, 210.501 208.999" stroke="none" fill="#0082d4" fill-rule="evenodd"/><path d="M 177 97.500 C 177 135.175, 177.333 166, 177.741 166 C 178.148 166, 187.148 157.342, 197.741 146.760 L 217 127.519 217 78.260 L 217 29 197 29 L 177 29 177 97.500 M 122.037 96.750 L 122.075 127.500 141 147 L 159.925 166.500 159.963 116.250 L 160 66 141 66 L 122 66 122.037 96.750 M 66 137.240 L 66 174.480 85 155.500 L 104 136.520 104 118.260 L 104 100 85 100 L 66 100 66 137.240 M 210.501 208.999 L 166.511 252.998 137.999 224.499 C 122.318 208.825, 109.185 196, 108.814 196 C 108.074 196, 96.671 207.707, 96.217 208.933 C 95.286 211.449, 159.210 273.908, 163.298 274.475 C 170.442 275.467, 171.909 274.357, 201.562 245.500 C 243.193 204.988, 251.385 193.339, 254.483 170.250 C 255.391 163.487, 260.543 158.948, 210.501 208.999" stroke="none" fill="#0082d4" fill-rule="evenodd"/><path d="M 177 97.500 C 177 135.175, 177.333 166, 177.741 166 C 178.148 166, 187.148 157.342, 197.741 146.760 L 217 127.519 217 78.260 L 217 29 197 29 L 177 29 177 97.500 M 122.037 96.750 L 122.075 127.500 141 147 L 159.925 166.500 159.963 116.250 L 160 66 141 66 L 122 66 122.037 96.750 M 66 137.240 L 66 174.480 85 155.500 L 104 136.520 104 118.260 L 104 100 85 100 L 66 100 66 137.240 M 210.501 208.999 L 166.511 252.998 137.999 224.499 C 122.318 208.825, 109.185 196, 108.814 196 C 108.074 196, 96.671 207.707, 96.217 208.933 C 95.286 211.449, 159.210 273.908, 163.298 274.475 C 170.442 275.467, 171.909 274.357, 201.562 245.500 C 243.193 204.988, 251.385 193.339, 254.483 170.250 C 255.391 163.487, 260.543 158.948, 210.501 208.999" stroke="none" fill="#0082d4" fill-rule="evenodd"/><path d="M 333 157.500 L 333 219 345 219 L 357 219 357 157.500 L 357 96 345 96 L 333 96 333 157.500 M 470 157.500 L 470 219 482 219 L 494 219 494 198.850 L 494 178.699 496.750 182.716 C 498.262 184.926, 505.125 193.983, 512 202.844 L 524.500 218.954 537.750 218.977 C 545.038 218.990, 551 218.633, 551 218.185 C 551 217.213, 545.723 209.792, 529.182 187.505 C 522.407 178.377, 517.007 170.512, 517.182 170.029 C 517.357 169.546, 524.700 160.983, 533.500 151 C 542.300 141.017, 549.650 132.433, 549.833 131.925 C 550.027 131.387, 544.332 131, 536.213 131 L 522.259 131 511.794 143.250 C 506.039 149.988, 499.681 157.672, 497.665 160.327 L 494 165.153 494 130.577 L 494 96 482 96 L 470 96 470 157.500 M 794.242 157.250 L 794.500 218.500 805.750 218.783 L 817 219.066 817 214.533 C 817 209.625, 817.814 208.872, 819.756 211.982 C 829.469 227.534, 863.329 219.853, 873.596 199.769 C 895.024 157.851, 853.978 107.621, 821.591 136.128 L 816.857 140.296 817.179 118.147 L 817.500 95.998 805.742 95.999 L 793.985 96 794.242 157.250 M 690.753 128.998 C 685.113 129.991, 680.245 132.818, 676.154 137.478 C 672.845 141.246, 672 140.623, 672 134.418 L 672 131 660.989 131 L 649.979 131 650.239 174.750 L 650.500 218.500 661.878 218.500 L 673.256 218.500 673.072 189.820 C 672.837 153.327, 674.089 150, 688.046 150 C 700.757 150, 701.387 151.739, 702 188.500 L 702.500 218.500 713.750 218.783 L 725 219.066 725 190.501 C 725 154.068, 726.492 150, 739.854 150 C 751.351 150, 753 153.426, 753 177.311 C 753 186.867, 753.294 200.157, 753.654 206.843 L 754.307 219 766.154 219 L 778 219 777.983 188.250 C 777.959 146.238, 776.422 139.865, 764.547 132.524 C 753.874 125.925, 731.695 129.223, 724.284 138.511 L 721.620 141.850 717.848 137.564 C 711.666 130.541, 701.050 127.185, 690.753 128.998 M 413.081 130.588 C 406.734 132.295, 401.836 135.122, 399.016 138.706 L 397 141.270 396.882 136.885 C 396.816 134.473, 396.816 132.162, 396.882 131.750 C 396.947 131.338, 391.600 131, 385 131 L 373 131 373 173.418 C 373 224.448, 371.493 219, 385.607 219 L 397 219 397.022 191.250 C 397.050 155.483, 398.731 151.153, 412.935 150.245 C 426.890 149.354, 428.370 152.971, 429 189.500 L 429.500 218.500 441.250 218.782 L 453 219.063 452.983 188.782 C 452.964 155.562, 452.069 147.724, 447.506 140.830 C 441.174 131.261, 426.650 126.940, 413.081 130.588 M 582.383 129.907 C 543.297 139.761, 541.133 205.021, 579.479 217.475 C 615.249 229.092, 645.726 197.704, 635.557 159.720 C 629.477 137.006, 606.134 123.919, 582.383 129.907 M 912.286 130.392 C 901.596 133.881, 893.517 141.245, 890.655 150.106 C 888.457 156.911, 888.583 157.001, 900.309 156.994 L 910.500 156.987 912.154 154.079 C 919.457 141.243, 940 146.990, 940 161.870 L 940 164.699 924.750 165.279 C 895.584 166.388, 884.706 173.637, 884.706 191.964 C 884.706 216.321, 916.115 228.886, 935.173 212.153 L 938.745 209.017 939.411 214.041 L 940.077 219.065 951.094 218.782 L 962.110 218.500 962.040 185.500 C 961.951 143.513, 960.820 139.692, 946.355 132.527 C 939.309 129.038, 920.121 127.835, 912.286 130.392 M 586.500 150.289 C 574.447 157.088, 572.160 182.649, 582.522 194.754 C 591.883 205.691, 606.327 201.394, 610.994 186.284 C 618.273 162.717, 603.349 140.785, 586.500 150.289 M 831.506 150.138 C 814.412 154.127, 811.231 187.152, 826.922 197.726 C 842.004 207.890, 858.568 189.443, 854.063 167.500 C 851.196 153.539, 843.225 147.403, 831.506 150.138 M 914.367 181.918 C 907.749 185.953, 906.215 191.725, 910.430 196.734 C 919.782 207.849, 940 197.867, 940 182.134 C 940 179.054, 919.349 178.880, 914.367 181.918" stroke="none" fill="#ffffff" fill-rule="evenodd"/><path d="M 333 157.500 L 333 219 345 219 L 357 219 357 157.500 L 357 96 345 96 L 333 96 333 157.500 M 470 157.500 L 470 219 482 219 L 494 219 494 198.850 L 494 178.699 496.750 182.716 C 498.262 184.926, 505.125 193.983, 512 202.844 L 524.500 218.954 537.750 218.977 C 545.038 218.990, 551 218.633, 551 218.185 C 551 217.213, 545.723 209.792, 529.182 187.505 C 522.407 178.377, 517.007 170.512, 517.182 170.029 C 517.357 169.546, 524.700 160.983, 533.500 151 C 542.300 141.017, 549.650 132.433, 549.833 131.925 C 550.027 131.387, 544.332 131, 536.213 131 L 522.259 131 511.794 143.250 C 506.039 149.988, 499.681 157.672, 497.665 160.327 L 494 165.153 494 130.577 L 494 96 482 96 L 470 96 470 157.500 M 794.242 157.250 L 794.500 218.500 805.750 218.783 L 817 219.066 817 214.533 C 817 209.625, 817.814 208.872, 819.756 211.982 C 829.469 227.534, 863.329 219.853, 873.596 199.769 C 895.024 157.851, 853.978 107.621, 821.591 136.128 L 816.857 140.296 817.179 118.147 L 817.500 95.998 805.742 95.999 L 793.985 96 794.242 157.250 M 690.753 128.998 C 685.113 129.991, 680.245 132.818, 676.154 137.478 C 672.845 141.246, 672 140.623, 672 134.418 L 672 131 660.989 131 L 649.979 131 650.239 174.750 L 650.500 218.500 661.878 218.500 L 673.256 218.500 673.072 189.820 C 672.837 153.327, 674.089 150, 688.046 150 C 700.757 150, 701.387 151.739, 702 188.500 L 702.500 218.500 713.750 218.783 L 725 219.066 725 190.501 C 725 154.068, 726.492 150, 739.854 150 C 751.351 150, 753 153.426, 753 177.311 C 753 186.867, 753.294 200.157, 753.654 206.843 L 754.307 219 766.154 219 L 778 219 777.983 188.250 C 777.959 146.238, 776.422 139.865, 764.547 132.524 C 753.874 125.925, 731.695 129.223, 724.284 138.511 L 721.620 141.850 717.848 137.564 C 711.666 130.541, 701.050 127.185, 690.753 128.998 M 413.081 130.588 C 406.734 132.295, 401.836 135.122, 399.016 138.706 L 397 141.270 396.882 136.885 C 396.816 134.473, 396.816 132.162, 396.882 131.750 C 396.947 131.338, 391.600 131, 385 131 L 373 131 373 173.418 C 373 224.448, 371.493 219, 385.607 219 L 397 219 397.022 191.250 C 397.050 155.483, 398.731 151.153, 412.935 150.245 C 426.890 149.354, 428.370 152.971, 429 189.500 L 429.500 218.500 441.250 218.782 L 453 219.063 452.983 188.782 C 452.964 155.562, 452.069 147.724, 447.506 140.830 C 441.174 131.261, 426.650 126.940, 413.081 130.588 M 582.383 129.907 C 543.297 139.761, 541.133 205.021, 579.479 217.475 C 615.249 229.092, 645.726 197.704, 635.557 159.720 C 629.477 137.006, 606.134 123.919, 582.383 129.907 M 912.286 130.392 C 901.596 133.881, 893.517 141.245, 890.655 150.106 C 888.457 156.911, 888.583 157.001, 900.309 156.994 L 910.500 156.987 912.154 154.079 C 919.457 141.243, 940 146.990, 940 161.870 L 940 164.699 924.750 165.279 C 895.584 166.388, 884.706 173.637, 884.706 191.964 C 884.706 216.321, 916.115 228.886, 935.173 212.153 L 938.745 209.017 939.411 214.041 L 940.077 219.065 951.094 218.782 L 962.110 218.500 962.040 185.500 C 961.951 143.513, 960.820 139.692, 946.355 132.527 C 939.309 129.038, 920.121 127.835, 912.286 130.392 M 586.500 150.289 C 574.447 157.088, 572.160 182.649, 582.522 194.754 C 591.883 205.691, 606.327 201.394, 610.994 186.284 C 618.273 162.717, 603.349 140.785, 586.500 150.289 M 831.506 150.138 C 814.412 154.127, 811.231 187.152, 826.922 197.726 C 842.004 207.890, 858.568 189.443, 854.063 167.500 C 851.196 153.539, 843.225 147.403, 831.506 150.138 M 914.367 181.918 C 907.749 185.953, 906.215 191.725, 910.430 196.734 C 919.782 207.849, 940 197.867, 940 182.134 C 940 179.054, 919.349 178.880, 914.367 181.918" stroke="none" fill="#ffffff" fill-rule="evenodd"/><path d="M 333 157.500 L 333 219 345 219 L 357 219 357 157.500 L 357 96 345 96 L 333 96 333 157.500 M 470 157.500 L 470 219 482 219 L 494 219 494 198.850 L 494 178.699 496.750 182.716 C 498.262 184.926, 505.125 193.983, 512 202.844 L 524.500 218.954 537.750 218.977 C 545.038 218.990, 551 218.633, 551 218.185 C 551 217.213, 545.723 209.792, 529.182 187.505 C 522.407 178.377, 517.007 170.512, 517.182 170.029 C 517.357 169.546, 524.700 160.983, 533.500 151 C 542.300 141.017, 549.650 132.433, 549.833 131.925 C 550.027 131.387, 544.332 131, 536.213 131 L 522.259 131 511.794 143.250 C 506.039 149.988, 499.681 157.672, 497.665 160.327 L 494 165.153 494 130.577 L 494 96 482 96 L 470 96 470 157.500 M 794.242 157.250 L 794.500 218.500 805.750 218.783 L 817 219.066 817 214.533 C 817 209.625, 817.814 208.872, 819.756 211.982 C 829.469 227.534, 863.329 219.853, 873.596 199.769 C 895.024 157.851, 853.978 107.621, 821.591 136.128 L 816.857 140.296 817.179 118.147 L 817.500 95.998 805.742 95.999 L 793.985 96 794.242 157.250 M 690.753 128.998 C 685.113 129.991, 680.245 132.818, 676.154 137.478 C 672.845 141.246, 672 140.623, 672 134.418 L 672 131 660.989 131 L 649.979 131 650.239 174.750 L 650.500 218.500 661.878 218.500 L 673.256 218.500 673.072 189.820 C 672.837 153.327, 674.089 150, 688.046 150 C 700.757 150, 701.387 151.739, 702 188.500 L 702.500 218.500 713.750 218.783 L 725 219.066 725 190.501 C 725 154.068, 726.492 150, 739.854 150 C 751.351 150, 753 153.426, 753 177.311 C 753 186.867, 753.294 200.157, 753.654 206.843 L 754.307 219 766.154 219 L 778 219 777.983 188.250 C 777.959 146.238, 776.422 139.865, 764.547 132.524 C 753.874 125.925, 731.695 129.223, 724.284 138.511 L 721.620 141.850 717.848 137.564 C 711.666 130.541, 701.050 127.185, 690.753 128.998 M 413.081 130.588 C 406.734 132.295, 401.836 135.122, 399.016 138.706 L 397 141.270 396.882 136.885 C 396.816 134.473, 396.816 132.162, 396.882 131.750 C 396.947 131.338, 391.600 131, 385 131 L 373 131 373 173.418 C 373 224.448, 371.493 219, 385.607 219 L 397 219 397.022 191.250 C 397.050 155.483, 398.731 151.153, 412.935 150.245 C 426.890 149.354, 428.370 152.971, 429 189.500 L 429.500 218.500 441.250 218.782 L 453 219.063 452.983 188.782 C 452.964 155.562, 452.069 147.724, 447.506 140.830 C 441.174 131.261, 426.650 126.940, 413.081 130.588 M 582.383 129.907 C 543.297 139.761, 541.133 205.021, 579.479 217.475 C 615.249 229.092, 645.726 197.704, 635.557 159.720 C 629.477 137.006, 606.134 123.919, 582.383 129.907 M 912.286 130.392 C 901.596 133.881, 893.517 141.245, 890.655 150.106 C 888.457 156.911, 888.583 157.001, 900.309 156.994 L 910.500 156.987 912.154 154.079 C 919.457 141.243, 940 146.990, 940 161.870 L 940 164.699 924.750 165.279 C 895.584 166.388, 884.706 173.637, 884.706 191.964 C 884.706 216.321, 916.115 228.886, 935.173 212.153 L 938.745 209.017 939.411 214.041 L 940.077 219.065 951.094 218.782 L 962.110 218.500 962.040 185.500 C 961.951 143.513, 960.820 139.692, 946.355 132.527 C 939.309 129.038, 920.121 127.835, 912.286 130.392 M 586.500 150.289 C 574.447 157.088, 572.160 182.649, 582.522 194.754 C 591.883 205.691, 606.327 201.394, 610.994 186.284 C 618.273 162.717, 603.349 140.785, 586.500 150.289 M 831.506 150.138 C 814.412 154.127, 811.231 187.152, 826.922 197.726 C 842.004 207.890, 858.568 189.443, 854.063 167.500 C 851.196 153.539, 843.225 147.403, 831.506 150.138 M 914.367 181.918 C 907.749 185.953, 906.215 191.725, 910.430 196.734 C 919.782 207.849, 940 197.867, 940 182.134 C 940 179.054, 919.349 178.880, 914.367 181.918" stroke="none" fill="#ffffff" fill-rule="evenodd"/><path d="M 333 157.500 L 333 219 345 219 L 357 219 357 157.500 L 357 96 345 96 L 333 96 333 157.500 M 470 157.500 L 470 219 482 219 L 494 219 494 198.850 L 494 178.699 496.750 182.716 C 498.262 184.926, 505.125 193.983, 512 202.844 L 524.500 218.954 537.750 218.977 C 545.038 218.990, 551 218.633, 551 218.185 C 551 217.213, 545.723 209.792, 529.182 187.505 C 522.407 178.377, 517.007 170.512, 517.182 170.029 C 517.357 169.546, 524.700 160.983, 533.500 151 C 542.300 141.017, 549.650 132.433, 549.833 131.925 C 550.027 131.387, 544.332 131, 536.213 131 L 522.259 131 511.794 143.250 C 506.039 149.988, 499.681 157.672, 497.665 160.327 L 494 165.153 494 130.577 L 494 96 482 96 L 470 96 470 157.500 M 794.242 157.250 L 794.500 218.500 805.750 218.783 L 817 219.066 817 214.533 C 817 209.625, 817.814 208.872, 819.756 211.982 C 829.469 227.534, 863.329 219.853, 873.596 199.769 C 895.024 157.851, 853.978 107.621, 821.591 136.128 L 816.857 140.296 817.179 118.147 L 817.500 95.998 805.742 95.999 L 793.985 96 794.242 157.250 M 690.753 128.998 C 685.113 129.991, 680.245 132.818, 676.154 137.478 C 672.845 141.246, 672 140.623, 672 134.418 L 672 131 660.989 131 L 649.979 131 650.239 174.750 L 650.500 218.500 661.878 218.500 L 673.256 218.500 673.072 189.820 C 672.837 153.327, 674.089 150, 688.046 150 C 700.757 150, 701.387 151.739, 702 188.500 L 702.500 218.500 713.750 218.783 L 725 219.066 725 190.501 C 725 154.068, 726.492 150, 739.854 150 C 751.351 150, 753 153.426, 753 177.311 C 753 186.867, 753.294 200.157, 753.654 206.843 L 754.307 219 766.154 219 L 778 219 777.983 188.250 C 777.959 146.238, 776.422 139.865, 764.547 132.524 C 753.874 125.925, 731.695 129.223, 724.284 138.511 L 721.620 141.850 717.848 137.564 C 711.666 130.541, 701.050 127.185, 690.753 128.998 M 413.081 130.588 C 406.734 132.295, 401.836 135.122, 399.016 138.706 L 397 141.270 396.882 136.885 C 396.816 134.473, 396.816 132.162, 396.882 131.750 C 396.947 131.338, 391.600 131, 385 131 L 373 131 373 173.418 C 373 224.448, 371.493 219, 385.607 219 L 397 219 397.022 191.250 C 397.050 155.483, 398.731 151.153, 412.935 150.245 C 426.890 149.354, 428.370 152.971, 429 189.500 L 429.500 218.500 441.250 218.782 L 453 219.063 452.983 188.782 C 452.964 155.562, 452.069 147.724, 447.506 140.830 C 441.174 131.261, 426.650 126.940, 413.081 130.588 M 582.383 129.907 C 543.297 139.761, 541.133 205.021, 579.479 217.475 C 615.249 229.092, 645.726 197.704, 635.557 159.720 C 629.477 137.006, 606.134 123.919, 582.383 129.907 M 912.286 130.392 C 901.596 133.881, 893.517 141.245, 890.655 150.106 C 888.457 156.911, 888.583 157.001, 900.309 156.994 L 910.500 156.987 912.154 154.079 C 919.457 141.243, 940 146.990, 940 161.870 L 940 164.699 924.750 165.279 C 895.584 166.388, 884.706 173.637, 884.706 191.964 C 884.706 216.321, 916.115 228.886, 935.173 212.153 L 938.745 209.017 939.411 214.041 L 940.077 219.065 951.094 218.782 L 962.110 218.500 962.040 185.500 C 961.951 143.513, 960.820 139.692, 946.355 132.527 C 939.309 129.038, 920.121 127.835, 912.286 130.392 M 586.500 150.289 C 574.447 157.088, 572.160 182.649, 582.522 194.754 C 591.883 205.691, 606.327 201.394, 610.994 186.284 C 618.273 162.717, 603.349 140.785, 586.500 150.289 M 831.506 150.138 C 814.412 154.127, 811.231 187.152, 826.922 197.726 C 842.004 207.890, 858.568 189.443, 854.063 167.500 C 851.196 153.539, 843.225 147.403, 831.506 150.138 M 914.367 181.918 C 907.749 185.953, 906.215 191.725, 910.430 196.734 C 919.782 207.849, 940 197.867, 940 182.134 C 940 179.054, 919.349 178.880, 914.367 181.918" stroke="none" fill="#ffffff" fill-rule="evenodd"/><path d="M 333 157.500 L 333 219 345 219 L 357 219 357 157.500 L 357 96 345 96 L 333 96 333 157.500 M 470 157.500 L 470 219 482 219 L 494 219 494 198.850 L 494 178.699 496.750 182.716 C 498.262 184.926, 505.125 193.983, 512 202.844 L 524.500 218.954 537.750 218.977 C 545.038 218.990, 551 218.633, 551 218.185 C 551 217.213, 545.723 209.792, 529.182 187.505 C 522.407 178.377, 517.007 170.512, 517.182 170.029 C 517.357 169.546, 524.700 160.983, 533.500 151 C 542.300 141.017, 549.650 132.433, 549.833 131.925 C 550.027 131.387, 544.332 131, 536.213 131 L 522.259 131 511.794 143.250 C 506.039 149.988, 499.681 157.672, 497.665 160.327 L 494 165.153 494 130.577 L 494 96 482 96 L 470 96 470 157.500 M 794.242 157.250 L 794.500 218.500 805.750 218.783 L 817 219.066 817 214.533 C 817 209.625, 817.814 208.872, 819.756 211.982 C 829.469 227.534, 863.329 219.853, 873.596 199.769 C 895.024 157.851, 853.978 107.621, 821.591 136.128 L 816.857 140.296 817.179 118.147 L 817.500 95.998 805.742 95.999 L 793.985 96 794.242 157.250 M 690.753 128.998 C 685.113 129.991, 680.245 132.818, 676.154 137.478 C 672.845 141.246, 672 140.623, 672 134.418 L 672 131 660.989 131 L 649.979 131 650.239 174.750 L 650.500 218.500 661.878 218.500 L 673.256 218.500 673.072 189.820 C 672.837 153.327, 674.089 150, 688.046 150 C 700.757 150, 701.387 151.739, 702 188.500 L 702.500 218.500 713.750 218.783 L 725 219.066 725 190.501 C 725 154.068, 726.492 150, 739.854 150 C 751.351 150, 753 153.426, 753 177.311 C 753 186.867, 753.294 200.157, 753.654 206.843 L 754.307 219 766.154 219 L 778 219 777.983 188.250 C 777.959 146.238, 776.422 139.865, 764.547 132.524 C 753.874 125.925, 731.695 129.223, 724.284 138.511 L 721.620 141.850 717.848 137.564 C 711.666 130.541, 701.050 127.185, 690.753 128.998 M 413.081 130.588 C 406.734 132.295, 401.836 135.122, 399.016 138.706 L 397 141.270 396.882 136.885 C 396.816 134.473, 396.816 132.162, 396.882 131.750 C 396.947 131.338, 391.600 131, 385 131 L 373 131 373 173.418 C 373 224.448, 371.493 219, 385.607 219 L 397 219 397.022 191.250 C 397.050 155.483, 398.731 151.153, 412.935 150.245 C 426.890 149.354, 428.370 152.971, 429 189.500 L 429.500 218.500 441.250 218.782 L 453 219.063 452.983 188.782 C 452.964 155.562, 452.069 147.724, 447.506 140.830 C 441.174 131.261, 426.650 126.940, 413.081 130.588 M 582.383 129.907 C 543.297 139.761, 541.133 205.021, 579.479 217.475 C 615.249 229.092, 645.726 197.704, 635.557 159.720 C 629.477 137.006, 606.134 123.919, 582.383 129.907 M 912.286 130.392 C 901.596 133.881, 893.517 141.245, 890.655 150.106 C 888.457 156.911, 888.583 157.001, 900.309 156.994 L 910.500 156.987 912.154 154.079 C 919.457 141.243, 940 146.990, 940 161.870 L 940 164.699 924.750 165.279 C 895.584 166.388, 884.706 173.637, 884.706 191.964 C 884.706 216.321, 916.115 228.886, 935.173 212.153 L 938.745 209.017 939.411 214.041 L 940.077 219.065 951.094 218.782 L 962.110 218.500 962.040 185.500 C 961.951 143.513, 960.820 139.692, 946.355 132.527 C 939.309 129.038, 920.121 127.835, 912.286 130.392 M 586.500 150.289 C 574.447 157.088, 572.160 182.649, 582.522 194.754 C 591.883 205.691, 606.327 201.394, 610.994 186.284 C 618.273 162.717, 603.349 140.785, 586.500 150.289 M 831.506 150.138 C 814.412 154.127, 811.231 187.152, 826.922 197.726 C 842.004 207.890, 858.568 189.443, 854.063 167.500 C 851.196 153.539, 843.225 147.403, 831.506 150.138 M 914.367 181.918 C 907.749 185.953, 906.215 191.725, 910.430 196.734 C 919.782 207.849, 940 197.867, 940 182.134 C 940 179.054, 919.349 178.880, 914.367 181.918" stroke="none" fill="#ffffff" fill-rule="evenodd"/><path d="M 333 157.500 L 333 219 345 219 L 357 219 357 157.500 L 357 96 345 96 L 333 96 333 157.500 M 470 157.500 L 470 219 482 219 L 494 219 494 198.850 L 494 178.699 496.750 182.716 C 498.262 184.926, 505.125 193.983, 512 202.844 L 524.500 218.954 537.750 218.977 C 545.038 218.990, 551 218.633, 551 218.185 C 551 217.213, 545.723 209.792, 529.182 187.505 C 522.407 178.377, 517.007 170.512, 517.182 170.029 C 517.357 169.546, 524.700 160.983, 533.500 151 C 542.300 141.017, 549.650 132.433, 549.833 131.925 C 550.027 131.387, 544.332 131, 536.213 131 L 522.259 131 511.794 143.250 C 506.039 149.988, 499.681 157.672, 497.665 160.327 L 494 165.153 494 130.577 L 494 96 482 96 L 470 96 470 157.500 M 794.242 157.250 L 794.500 218.500 805.750 218.783 L 817 219.066 817 214.533 C 817 209.625, 817.814 208.872, 819.756 211.982 C 829.469 227.534, 863.329 219.853, 873.596 199.769 C 895.024 157.851, 853.978 107.621, 821.591 136.128 L 816.857 140.296 817.179 118.147 L 817.500 95.998 805.742 95.999 L 793.985 96 794.242 157.250 M 690.753 128.998 C 685.113 129.991, 680.245 132.818, 676.154 137.478 C 672.845 141.246, 672 140.623, 672 134.418 L 672 131 660.989 131 L 649.979 131 650.239 174.750 L 650.500 218.500 661.878 218.500 L 673.256 218.500 673.072 189.820 C 672.837 153.327, 674.089 150, 688.046 150 C 700.757 150, 701.387 151.739, 702 188.500 L 702.500 218.500 713.750 218.783 L 725 219.066 725 190.501 C 725 154.068, 726.492 150, 739.854 150 C 751.351 150, 753 153.426, 753 177.311 C 753 186.867, 753.294 200.157, 753.654 206.843 L 754.307 219 766.154 219 L 778 219 777.983 188.250 C 777.959 146.238, 776.422 139.865, 764.547 132.524 C 753.874 125.925, 731.695 129.223, 724.284 138.511 L 721.620 141.850 717.848 137.564 C 711.666 130.541, 701.050 127.185, 690.753 128.998 M 413.081 130.588 C 406.734 132.295, 401.836 135.122, 399.016 138.706 L 397 141.270 396.882 136.885 C 396.816 134.473, 396.816 132.162, 396.882 131.750 C 396.947 131.338, 391.600 131, 385 131 L 373 131 373 173.418 C 373 224.448, 371.493 219, 385.607 219 L 397 219 397.022 191.250 C 397.050 155.483, 398.731 151.153, 412.935 150.245 C 426.890 149.354, 428.370 152.971, 429 189.500 L 429.500 218.500 441.250 218.782 L 453 219.063 452.983 188.782 C 452.964 155.562, 452.069 147.724, 447.506 140.830 C 441.174 131.261, 426.650 126.940, 413.081 130.588 M 582.383 129.907 C 543.297 139.761, 541.133 205.021, 579.479 217.475 C 615.249 229.092, 645.726 197.704, 635.557 159.720 C 629.477 137.006, 606.134 123.919, 582.383 129.907 M 912.286 130.392 C 901.596 133.881, 893.517 141.245, 890.655 150.106 C 888.457 156.911, 888.583 157.001, 900.309 156.994 L 910.500 156.987 912.154 154.079 C 919.457 141.243, 940 146.990, 940 161.870 L 940 164.699 924.750 165.279 C 895.584 166.388, 884.706 173.637, 884.706 191.964 C 884.706 216.321, 916.115 228.886, 935.173 212.153 L 938.745 209.017 939.411 214.041 L 940.077 219.065 951.094 218.782 L 962.110 218.500 962.040 185.500 C 961.951 143.513, 960.820 139.692, 946.355 132.527 C 939.309 129.038, 920.121 127.835, 912.286 130.392 M 586.500 150.289 C 574.447 157.088, 572.160 182.649, 582.522 194.754 C 591.883 205.691, 606.327 201.394, 610.994 186.284 C 618.273 162.717, 603.349 140.785, 586.500 150.289 M 831.506 150.138 C 814.412 154.127, 811.231 187.152, 826.922 197.726 C 842.004 207.890, 858.568 189.443, 854.063 167.500 C 851.196 153.539, 843.225 147.403, 831.506 150.138 M 914.367 181.918 C 907.749 185.953, 906.215 191.725, 910.430 196.734 C 919.782 207.849, 940 197.867, 940 182.134 C 940 179.054, 919.349 178.880, 914.367 181.918" stroke="none" fill="#ffffff" fill-rule="evenodd"/><path d="M 333 157.500 L 333 219 345 219 L 357 219 357 157.500 L 357 96 345 96 L 333 96 333 157.500 M 470 157.500 L 470 219 482 219 L 494 219 494 198.850 L 494 178.699 496.750 182.716 C 498.262 184.926, 505.125 193.983, 512 202.844 L 524.500 218.954 537.750 218.977 C 545.038 218.990, 551 218.633, 551 218.185 C 551 217.213, 545.723 209.792, 529.182 187.505 C 522.407 178.377, 517.007 170.512, 517.182 170.029 C 517.357 169.546, 524.700 160.983, 533.500 151 C 542.300 141.017, 549.650 132.433, 549.833 131.925 C 550.027 131.387, 544.332 131, 536.213 131 L 522.259 131 511.794 143.250 C 506.039 149.988, 499.681 157.672, 497.665 160.327 L 494 165.153 494 130.577 L 494 96 482 96 L 470 96 470 157.500 M 794.242 157.250 L 794.500 218.500 805.750 218.783 L 817 219.066 817 214.533 C 817 209.625, 817.814 208.872, 819.756 211.982 C 829.469 227.534, 863.329 219.853, 873.596 199.769 C 895.024 157.851, 853.978 107.621, 821.591 136.128 L 816.857 140.296 817.179 118.147 L 817.500 95.998 805.742 95.999 L 793.985 96 794.242 157.250 M 690.753 128.998 C 685.113 129.991, 680.245 132.818, 676.154 137.478 C 672.845 141.246, 672 140.623, 672 134.418 L 672 131 660.989 131 L 649.979 131 650.239 174.750 L 650.500 218.500 661.878 218.500 L 673.256 218.500 673.072 189.820 C 672.837 153.327, 674.089 150, 688.046 150 C 700.757 150, 701.387 151.739, 702 188.500 L 702.500 218.500 713.750 218.783 L 725 219.066 725 190.501 C 725 154.068, 726.492 150, 739.854 150 C 751.351 150, 753 153.426, 753 177.311 C 753 186.867, 753.294 200.157, 753.654 206.843 L 754.307 219 766.154 219 L 778 219 777.983 188.250 C 777.959 146.238, 776.422 139.865, 764.547 132.524 C 753.874 125.925, 731.695 129.223, 724.284 138.511 L 721.620 141.850 717.848 137.564 C 711.666 130.541, 701.050 127.185, 690.753 128.998 M 413.081 130.588 C 406.734 132.295, 401.836 135.122, 399.016 138.706 L 397 141.270 396.882 136.885 C 396.816 134.473, 396.816 132.162, 396.882 131.750 C 396.947 131.338, 391.600 131, 385 131 L 373 131 373 173.418 C 373 224.448, 371.493 219, 385.607 219 L 397 219 397.022 191.250 C 397.050 155.483, 398.731 151.153, 412.935 150.245 C 426.890 149.354, 428.370 152.971, 429 189.500 L 429.500 218.500 441.250 218.782 L 453 219.063 452.983 188.782 C 452.964 155.562, 452.069 147.724, 447.506 140.830 C 441.174 131.261, 426.650 126.940, 413.081 130.588 M 582.383 129.907 C 543.297 139.761, 541.133 205.021, 579.479 217.475 C 615.249 229.092, 645.726 197.704, 635.557 159.720 C 629.477 137.006, 606.134 123.919, 582.383 129.907 M 912.286 130.392 C 901.596 133.881, 893.517 141.245, 890.655 150.106 C 888.457 156.911, 888.583 157.001, 900.309 156.994 L 910.500 156.987 912.154 154.079 C 919.457 141.243, 940 146.990, 940 161.870 L 940 164.699 924.750 165.279 C 895.584 166.388, 884.706 173.637, 884.706 191.964 C 884.706 216.321, 916.115 228.886, 935.173 212.153 L 938.745 209.017 939.411 214.041 L 940.077 219.065 951.094 218.782 L 962.110 218.500 962.040 185.500 C 961.951 143.513, 960.820 139.692, 946.355 132.527 C 939.309 129.038, 920.121 127.835, 912.286 130.392 M 586.500 150.289 C 574.447 157.088, 572.160 182.649, 582.522 194.754 C 591.883 205.691, 606.327 201.394, 610.994 186.284 C 618.273 162.717, 603.349 140.785, 586.500 150.289 M 831.506 150.138 C 814.412 154.127, 811.231 187.152, 826.922 197.726 C 842.004 207.890, 858.568 189.443, 854.063 167.500 C 851.196 153.539, 843.225 147.403, 831.506 150.138 M 914.367 181.918 C 907.749 185.953, 906.215 191.725, 910.430 196.734 C 919.782 207.849, 940 197.867, 940 182.134 C 940 179.054, 919.349 178.880, 914.367 181.918" stroke="none" fill="#ffffff" fill-rule="evenodd"/><path d="M 333 157.500 L 333 219 345 219 L 357 219 357 157.500 L 357 96 345 96 L 333 96 333 157.500 M 470 157.500 L 470 219 482 219 L 494 219 494 198.850 L 494 178.699 496.750 182.716 C 498.262 184.926, 505.125 193.983, 512 202.844 L 524.500 218.954 537.750 218.977 C 545.038 218.990, 551 218.633, 551 218.185 C 551 217.213, 545.723 209.792, 529.182 187.505 C 522.407 178.377, 517.007 170.512, 517.182 170.029 C 517.357 169.546, 524.700 160.983, 533.500 151 C 542.300 141.017, 549.650 132.433, 549.833 131.925 C 550.027 131.387, 544.332 131, 536.213 131 L 522.259 131 511.794 143.250 C 506.039 149.988, 499.681 157.672, 497.665 160.327 L 494 165.153 494 130.577 L 494 96 482 96 L 470 96 470 157.500 M 794.242 157.250 L 794.500 218.500 805.750 218.783 L 817 219.066 817 214.533 C 817 209.625, 817.814 208.872, 819.756 211.982 C 829.469 227.534, 863.329 219.853, 873.596 199.769 C 895.024 157.851, 853.978 107.621, 821.591 136.128 L 816.857 140.296 817.179 118.147 L 817.500 95.998 805.742 95.999 L 793.985 96 794.242 157.250 M 690.753 128.998 C 685.113 129.991, 680.245 132.818, 676.154 137.478 C 672.845 141.246, 672 140.623, 672 134.418 L 672 131 660.989 131 L 649.979 131 650.239 174.750 L 650.500 218.500 661.878 218.500 L 673.256 218.500 673.072 189.820 C 672.837 153.327, 674.089 150, 688.046 150 C 700.757 150, 701.387 151.739, 702 188.500 L 702.500 218.500 713.750 218.783 L 725 219.066 725 190.501 C 725 154.068, 726.492 150, 739.854 150 C 751.351 150, 753 153.426, 753 177.311 C 753 186.867, 753.294 200.157, 753.654 206.843 L 754.307 219 766.154 219 L 778 219 777.983 188.250 C 777.959 146.238, 776.422 139.865, 764.547 132.524 C 753.874 125.925, 731.695 129.223, 724.284 138.511 L 721.620 141.850 717.848 137.564 C 711.666 130.541, 701.050 127.185, 690.753 128.998 M 413.081 130.588 C 406.734 132.295, 401.836 135.122, 399.016 138.706 L 397 141.270 396.882 136.885 C 396.816 134.473, 396.816 132.162, 396.882 131.750 C 396.947 131.338, 391.600 131, 385 131 L 373 131 373 173.418 C 373 224.448, 371.493 219, 385.607 219 L 397 219 397.022 191.250 C 397.050 155.483, 398.731 151.153, 412.935 150.245 C 426.890 149.354, 428.370 152.971, 429 189.500 L 429.500 218.500 441.250 218.782 L 453 219.063 452.983 188.782 C 452.964 155.562, 452.069 147.724, 447.506 140.830 C 441.174 131.261, 426.650 126.940, 413.081 130.588 M 582.383 129.907 C 543.297 139.761, 541.133 205.021, 579.479 217.475 C 615.249 229.092, 645.726 197.704, 635.557 159.720 C 629.477 137.006, 606.134 123.919, 582.383 129.907 M 912.286 130.392 C 901.596 133.881, 893.517 141.245, 890.655 150.106 C 888.457 156.911, 888.583 157.001, 900.309 156.994 L 910.500 156.987 912.154 154.079 C 919.457 141.243, 940 146.990, 940 161.870 L 940 164.699 924.750 165.279 C 895.584 166.388, 884.706 173.637, 884.706 191.964 C 884.706 216.321, 916.115 228.886, 935.173 212.153 L 938.745 209.017 939.411 214.041 L 940.077 219.065 951.094 218.782 L 962.110 218.500 962.040 185.500 C 961.951 143.513, 960.820 139.692, 946.355 132.527 C 939.309 129.038, 920.121 127.835, 912.286 130.392 M 586.500 150.289 C 574.447 157.088, 572.160 182.649, 582.522 194.754 C 591.883 205.691, 606.327 201.394, 610.994 186.284 C 618.273 162.717, 603.349 140.785, 586.500 150.289 M 831.506 150.138 C 814.412 154.127, 811.231 187.152, 826.922 197.726 C 842.004 207.890, 858.568 189.443, 854.063 167.500 C 851.196 153.539, 843.225 147.403, 831.506 150.138 M 914.367 181.918 C 907.749 185.953, 906.215 191.725, 910.430 196.734 C 919.782 207.849, 940 197.867, 940 182.134 C 940 179.054, 919.349 178.880, 914.367 181.918" stroke="none" fill="#ffffff" fill-rule="evenodd"/></svg>